<?xml version="1.0" standalone="no"?>
<!DOCTYPE svg PUBLIC "-//W3C//DTD SVG 20010904//EN"
 "http://www.w3.org/TR/2001/REC-SVG-20010904/DTD/svg10.dtd">
<svg version="1.0" xmlns="http://www.w3.org/2000/svg"
 width="821.000000pt" height="292.000000pt" viewBox="0 0 821.000000 292.000000"
 preserveAspectRatio="xMidYMid meet">

<g transform="translate(0.000000,292.000000) scale(0.100000,-0.100000)"
fill="#ffffff" stroke="none">
<path d="M13 2913 c-10 -4 -13 -305 -13 -1459 l0 -1454 2919 0 c2479 0 2920 2
2930 14 6 8 23 16 37 19 20 4 23 1 19 -14 -6 -18 24 -19 1092 -19 l1098 0 20
36 c11 20 36 51 57 69 l38 32 0 1391 0 1392 -4092 -1 c-2251 0 -4099 -3 -4105
-6z m2112 -529 c162 -42 281 -150 327 -297 22 -73 24 -226 3 -315 -30 -126
-112 -251 -205 -311 l-57 -37 46 -27 c140 -78 211 -225 197 -407 -18 -245
-141 -430 -349 -525 -130 -60 -116 -59 -811 -63 -533 -3 -638 -1 -633 10 2 8
47 72 99 143 52 72 112 156 133 188 l38 57 432 0 c461 0 488 2 556 50 81 58
106 225 45 305 -55 71 -73 75 -409 75 l-298 0 38 54 c21 30 80 112 130 184
l93 130 187 4 c201 4 223 9 269 60 44 48 58 90 59 170 0 83 -12 110 -69 152
-26 20 -42 21 -337 24 -170 2 -309 6 -308 10 0 4 18 34 39 67 22 33 49 78 61
100 29 55 110 187 125 205 18 22 510 17 599 -6z m-738 3 c-2 -7 -40 -71 -84
-142 -44 -72 -101 -166 -128 -210 -27 -44 -69 -114 -95 -155 -79 -126 -126
-203 -149 -242 l-22 -38 226 -2 226 -3 -96 -130 c-53 -71 -113 -153 -133 -182
-20 -28 -84 -114 -142 -189 -58 -76 -112 -148 -120 -160 -8 -12 -101 -136
-205 -276 -105 -139 -206 -274 -225 -300 -18 -27 -35 -46 -37 -44 -2 1 42 125
97 274 55 149 100 275 100 281 0 5 13 45 29 88 58 154 121 336 121 347 0 9
-50 12 -185 11 -102 0 -185 3 -185 7 0 4 44 110 99 235 54 126 124 289 155
363 31 74 89 212 129 307 l72 172 279 1 c222 0 277 -3 273 -13z m2106 -511
c18 -7 45 -28 60 -45 26 -31 27 -37 27 -149 -1 -125 -5 -139 -55 -172 l-26
-17 35 -21 c47 -28 59 -72 54 -199 -4 -118 -16 -144 -88 -180 -43 -22 -54 -23
-302 -23 l-258 0 0 261 c0 169 4 267 11 281 8 14 8 23 0 31 -7 7 -11 57 -11
129 l0 118 260 0 c198 0 269 -3 293 -14z m837 -61 l0 -75 -197 -2 -198 -3 -3
-82 -3 -83 166 0 165 0 0 -80 0 -80 -165 0 -165 0 0 -90 0 -90 200 0 200 0 0
-80 0 -80 -290 0 -290 0 0 410 1 410 289 0 290 0 0 -75z m748 47 c59 -43 67
-69 67 -237 0 -173 -11 -205 -80 -240 -22 -11 -42 -21 -44 -22 -2 -1 31 -63
73 -137 42 -75 76 -140 76 -146 0 -6 -38 -10 -97 -10 l-98 0 -65 126 c-80 154
-88 164 -143 164 -89 0 -86 5 -89 -149 l-3 -136 -88 -3 -87 -3 0 411 1 411
272 -3 c266 -3 273 -3 305 -26z m829 2 c48 -36 62 -71 64 -164 l2 -85 -91 -3
-92 -3 0 55 c0 44 -4 57 -19 66 -25 13 -237 13 -262 0 -18 -10 -19 -24 -19
-244 0 -187 3 -236 14 -245 9 -8 57 -11 147 -9 l134 3 3 63 3 63 92 -3 92 -3
3 -58 c5 -87 -20 -160 -65 -194 l-36 -28 -211 -3 c-138 -2 -224 0 -249 8 -47
14 -95 62 -102 104 -3 17 -5 162 -3 321 4 404 -12 386 340 382 213 -2 228 -3
255 -23z m833 -49 l0 -75 -200 0 -200 0 0 -85 0 -85 165 0 c174 0 168 2 168
-45 0 -8 -1 -37 -2 -65 l-1 -50 -165 0 -165 0 0 -90 0 -90 200 0 200 0 0 -80
0 -80 -292 2 -293 3 2 265 c0 146 1 276 2 290 0 14 0 61 -2 105 -2 44 -1 97 1
118 l5 37 288 0 289 0 0 -75z m706 59 c51 -24 74 -76 74 -164 l0 -71 -87 3
-88 3 -5 45 -5 45 -122 3 c-109 2 -123 1 -131 -15 -7 -15 -9 -74 -3 -104 2
-12 55 -28 206 -64 225 -53 245 -74 245 -251 0 -123 -12 -159 -66 -200 l-37
-29 -204 -3 c-192 -3 -206 -2 -249 18 -61 30 -84 76 -84 170 l0 70 90 0 90 0
0 -45 c0 -40 3 -47 26 -55 34 -13 210 -13 235 0 15 9 19 22 19 69 0 35 -5 63
-12 69 -7 5 -85 26 -172 46 -252 58 -276 79 -276 249 0 60 5 110 14 130 17 40
61 84 89 90 12 2 111 5 220 6 166 1 205 -2 233 -15z m-3686 -1099 l0 -105 33
-2 c17 -1 46 -2 62 -3 22 -1 30 -6 30 -19 0 -16 -11 -19 -82 -22 l-83 -4 0
130 c0 123 1 130 20 130 19 0 20 -7 20 -105z m258 -22 c-3 -120 -4 -128 -23
-128 -19 0 -20 8 -23 128 l-3 127 26 0 26 0 -3 -127z m183 80 c11 -27 27 -64
35 -83 l15 -35 36 83 c32 74 38 82 63 82 15 0 29 -6 31 -12 2 -7 4 -62 4 -121
0 -83 -3 -110 -15 -117 -25 -15 -30 -1 -30 81 0 43 -4 79 -8 79 -5 0 -19 -29
-31 -65 -19 -54 -27 -65 -46 -65 -19 0 -28 12 -50 65 -16 36 -31 65 -34 65 -4
0 -7 -36 -7 -80 -1 -86 -4 -96 -29 -87 -12 5 -15 28 -15 132 l0 125 30 0 c27
0 33 -6 51 -47z m334 -68 c0 -133 -2 -145 -26 -145 -18 0 -19 9 -19 131 0 130
0 130 23 127 21 -3 22 -7 22 -113z m285 96 c0 -16 -8 -20 -37 -23 l-38 -3 -2
-105 c-1 -97 -3 -105 -22 -108 -19 -3 -20 2 -23 105 l-3 108 -37 3 c-30 3 -38
7 -38 23 0 18 8 19 100 19 92 0 100 -1 100 -19z m228 -100 c46 -130 48 -141
30 -141 -19 0 -34 12 -47 38 -9 18 -20 22 -56 22 -39 0 -46 -4 -60 -30 -17
-34 -62 -44 -52 -12 3 9 23 68 44 129 37 110 39 113 68 113 30 0 31 -3 73
-119z m306 98 c25 -19 26 -25 26 -109 0 -86 -1 -90 -27 -107 -17 -12 -52 -19
-100 -21 l-73 -4 0 131 0 131 74 0 c59 0 78 -4 100 -21z m294 -99 c23 -65 42
-124 42 -130 0 -5 -9 -10 -21 -10 -14 0 -24 10 -32 30 -11 28 -15 30 -63 30
-48 0 -52 -2 -64 -30 -12 -30 -50 -43 -50 -17 0 6 19 65 41 130 41 116 42 117
73 117 31 0 32 -2 74 -120z m452 98 c28 -30 26 -58 -4 -58 -16 0 -26 7 -29 21
-5 17 -12 20 -44 17 -30 -2 -39 -7 -41 -25 -3 -22 1 -24 63 -38 55 -12 75 -32
75 -75 0 -62 -41 -88 -121 -77 -49 6 -69 22 -69 53 0 19 5 24 24 24 15 0 26
-7 29 -20 10 -37 87 -23 87 16 0 20 -8 26 -57 40 -65 18 -83 35 -83 76 0 46
31 68 95 68 43 0 58 -5 75 -22z m290 -5 c17 -22 21 -37 17 -67 -7 -53 -26 -68
-91 -74 l-56 -4 0 -45 c0 -40 -2 -44 -22 -41 -22 3 -23 6 -24 131 l-1 127 78
0 c73 0 79 -2 99 -27z m256 -93 c23 -63 43 -121 43 -127 1 -7 -10 -13 -23 -13
-18 0 -27 8 -35 30 -9 28 -13 30 -60 30 -45 0 -50 -2 -59 -28 -7 -20 -17 -28
-37 -30 -14 -1 -25 2 -23 6 2 5 23 64 48 131 44 119 46 122 74 119 27 -3 31
-10 72 -118z m-3068 -7 c3 -10 -65 -13 -317 -13 -280 0 -321 2 -321 15 0 13
39 15 317 13 242 -2 317 -6 321 -15z m3942 2 c0 -13 -44 -15 -335 -15 -291 0
-335 2 -335 15 0 13 44 15 335 15 291 0 335 -2 335 -15z m-5747 -469 c-42 -13
-623 -20 -623 -7 0 13 71 16 393 16 165 0 248 -3 230 -9z m215 7 c-10 -2 -26
-2 -35 0 -10 3 -2 5 17 5 19 0 27 -2 18 -5z m762 -3 c19 -3 -48 -9 -150 -12
-131 -5 -211 -3 -275 7 -88 13 -86 13 150 12 132 -1 256 -4 275 -7z m2484 1
c19 -7 19 -8 0 -17 -11 -5 -483 -9 -1158 -9 -947 -1 -1141 2 -1152 13 -8 7
-14 9 -14 4 0 -10 -96 -16 -111 -7 -5 4 -7 11 -4 16 7 11 2411 11 2439 0z
m1636 -5 c-12 -12 -101 -15 -505 -20 -512 -6 -574 -3 -554 20 9 12 105 14 542
14 459 0 529 -2 517 -14z"/>
<path d="M3122 1653 l3 -88 119 -3 c148 -3 156 1 156 94 0 52 -3 65 -19 74
-11 5 -74 10 -141 10 l-121 0 3 -87z"/>
<path d="M3127 1413 c-4 -3 -7 -46 -7 -95 l0 -88 135 0 c123 0 135 2 145 19
16 30 12 123 -6 149 -14 21 -22 22 -138 22 -67 0 -126 -3 -129 -7z"/>
<path d="M4680 1625 l0 -115 113 -2 c138 -2 149 -1 159 15 4 6 8 53 8 104 0
81 -2 94 -19 103 -11 5 -74 10 -140 10 l-121 0 0 -115z"/>
<path d="M4967 810 c-9 -27 -27 -83 -27 -86 0 -2 16 -4 36 -4 32 0 35 2 28 23
-16 54 -32 82 -37 67z"/>
<path d="M5230 754 l0 -85 48 3 47 3 3 74 c3 84 -1 91 -60 91 l-38 0 0 -86z"/>
<path d="M5557 782 c-23 -58 -22 -62 19 -62 39 0 39 2 10 75 l-12 29 -17 -42z"/>
<path d="M6264 826 c-3 -8 -4 -27 -2 -43 3 -30 23 -39 64 -29 22 6 25 11 22
44 -3 35 -5 37 -41 40 -26 2 -39 -1 -43 -12z"/>
<path d="M6556 784 c-4 -19 -10 -42 -13 -50 -4 -10 4 -14 31 -14 20 0 36 1 36
3 0 15 -34 97 -40 97 -4 0 -11 -16 -14 -36z"/>
</g>
</svg>
